<svg width="50" height="50" viewBox="0 0 50 50" fill="none" xmlns="http://www.w3.org/2000/svg">
<rect width="50" height="50" rx="25" fill="url(#paint0_linear_23_32350)"/>
<path d="M25.2148 26.6367H20.7734V24.3047H25.2148C25.9883 24.3047 26.6133 24.1797 27.0898 23.9297C27.5664 23.6797 27.9141 23.3359 28.1328 22.8984C28.3594 22.4531 28.4727 21.9453 28.4727 21.375C28.4727 20.8359 28.3594 20.332 28.1328 19.8633C27.9141 19.3867 27.5664 19.0039 27.0898 18.7148C26.6133 18.4258 25.9883 18.2812 25.2148 18.2812H21.6758V33H18.7344V15.9375H25.2148C26.5352 15.9375 27.6562 16.1719 28.5781 16.6406C29.5078 17.1016 30.2148 17.7422 30.6992 18.5625C31.1836 19.375 31.4258 20.3047 31.4258 21.3516C31.4258 22.4531 31.1836 23.3984 30.6992 24.1875C30.2148 24.9766 29.5078 25.582 28.5781 26.0039C27.6562 26.4258 26.5352 26.6367 25.2148 26.6367Z" fill="white"/>
<defs>
<linearGradient id="paint0_linear_23_32350" x1="0" y1="25" x2="50" y2="25" gradientUnits="userSpaceOnUse">
<stop stop-color="#4C3BCF"/>
<stop offset="1" stop-color="#3572EF"/>
</linearGradient>
</defs>
</svg>
